<svg width="73" height="35" viewBox="0 0 73 35" fill="none" xmlns="http://www.w3.org/2000/svg">
<path d="M6.5 23.78C6.4 23.82 6.32 23.8 6.28 23.72C6.22 23.64 6.2 23.56 6.24 23.44C6.04 23.34 5.94 23.26 5.9 23.22C5.86 23.18 5.8 23.08 5.76 22.9C5.84 22.88 5.88 22.84 5.92 22.78C5.96 22.72 5.98 22.66 5.98 22.6C5.98 22.54 5.98 22.48 5.98 22.44C5.98 22.4 5.98 22.4 6 22.4C6.16 22.28 6.32 22.14 6.48 21.98C6.64 21.82 6.82 21.78 7.04 21.82L7.3 22.04L7.8 21.96C7.8 22 7.82 22.02 7.86 22.02C7.9 22.02 7.96 22.02 8.02 22C8.08 22 8.14 22 8.2 22C8.26 22 8.32 22.02 8.36 22.06C8.6 22.1 8.8 22.08 8.92 22.02C9.04 21.98 9.2 21.96 9.38 21.96C9.42 22.04 9.44 22.08 9.48 22.08C9.52 22.1 9.56 22.12 9.62 22.12C9.66 22.12 9.74 22.14 9.82 22.16C9.9 22.18 10.02 22.22 10.18 22.28C10.32 22.18 10.42 22.12 10.5 22.1C10.56 22.08 10.64 22.14 10.76 22.3C10.96 22.22 11.12 22.18 11.24 22.22C11.36 22.26 11.46 22.3 11.54 22.3C11.58 22.16 11.6 22 11.6 21.84C11.58 21.68 11.54 21.6 11.5 21.56C11.56 21.44 11.6 21.36 11.62 21.28C11.62 21.2 11.64 21.14 11.64 21.1C11.64 21.06 11.64 21.02 11.64 20.98C11.64 20.96 11.68 20.92 11.74 20.88C11.62 20.78 11.56 20.68 11.58 20.56C11.58 20.44 11.6 20.26 11.64 20C11.6 19.86 11.62 19.7 11.66 19.54C11.7 19.38 11.74 19.22 11.78 19.06C11.7 19.02 11.66 18.92 11.7 18.78C11.72 18.64 11.72 18.54 11.72 18.5C11.76 18.42 11.78 18.3 11.78 18.18C11.78 18.06 11.76 17.92 11.7 17.72C11.74 17.68 11.78 17.64 11.78 17.58C11.78 17.52 11.76 17.46 11.76 17.4C11.76 17.34 11.76 17.3 11.78 17.26C11.78 17.24 11.84 17.24 11.92 17.24C12.08 17.06 12.2 16.98 12.32 16.98C12.42 16.98 12.54 16.98 12.68 16.96C12.78 16.98 12.86 16.96 12.94 16.92C13 16.88 13.14 16.9 13.34 16.98C13.42 17.1 13.46 17.18 13.48 17.26C13.48 17.34 13.48 17.42 13.48 17.48C13.48 17.56 13.48 17.62 13.48 17.68C13.48 17.76 13.5 17.82 13.54 17.86V17.94C13.54 17.98 13.56 18.04 13.58 18.1C13.58 18.18 13.6 18.24 13.62 18.3C13.64 18.36 13.66 18.4 13.7 18.4C13.66 18.56 13.62 18.66 13.6 18.74C13.56 18.82 13.54 18.9 13.52 18.98C13.5 19.06 13.48 19.14 13.46 19.22C13.44 19.3 13.42 19.42 13.38 19.56C13.44 19.56 13.48 19.6 13.48 19.66C13.48 19.72 13.46 19.78 13.44 19.84C13.42 19.9 13.4 19.96 13.38 20C13.34 20.06 13.34 20.08 13.34 20.04L13.36 20.9L13.32 21.44L13.54 22.18C13.58 22.22 13.62 22.24 13.7 22.24C13.76 22.24 13.82 22.24 13.9 22.22C13.98 22.22 14.04 22.22 14.1 22.22C14.14 22.24 14.18 22.28 14.2 22.36C14.3 22.28 14.38 22.22 14.46 22.18C14.52 22.14 14.58 22.12 14.66 22.1C14.72 22.1 14.8 22.1 14.88 22.1C14.96 22.12 15.08 22.14 15.24 22.14C15.34 22.08 15.44 22.06 15.52 22.08C15.6 22.1 15.74 22.08 15.9 22.04C15.98 22.12 16.06 22.14 16.12 22.14C16.16 22.14 16.2 22.14 16.24 22.12C16.28 22.1 16.3 22.08 16.34 22.04C16.38 22 16.42 21.98 16.48 21.96C16.64 22.12 16.78 22.18 16.92 22.16C17.06 22.14 17.12 22.1 17.12 22.02H17.5C17.68 22.02 17.82 22.06 17.94 22.1C17.94 22.06 17.98 22.06 18.02 22.06C18.06 22.06 18.1 22.08 18.18 22.08C18.24 22.08 18.32 22.1 18.4 22.1C18.48 22.1 18.56 22.08 18.64 22.04L18.66 22.06C18.7 22.06 18.74 22.06 18.82 22.08C18.88 22.12 18.94 22.14 19 22.16C19.06 22.2 19.12 22.22 19.16 22.24C19.2 22.28 19.2 22.28 19.2 22.24C19.26 22.36 19.32 22.46 19.4 22.58C19.46 22.7 19.52 22.8 19.58 22.88C19.46 23.04 19.4 23.2 19.38 23.32C19.36 23.44 19.32 23.58 19.24 23.74C19.16 23.78 19.08 23.78 19.04 23.76C18.98 23.76 18.84 23.76 18.64 23.76C18.52 23.84 18.38 23.92 18.18 23.98C17.98 24.06 17.76 24.08 17.48 24.04C17.36 24.08 17.26 24.08 17.18 24.06C17.1 24.06 17 24.04 16.92 24.02C16.82 24 16.72 24 16.62 24C16.5 24 16.4 24.04 16.28 24.08C16.18 24.12 16.06 24.12 15.94 24.12C15.8 24.12 15.66 24.1 15.52 24.1C15.48 24.12 15.44 24.1 15.36 24.04C15.28 24 15.12 23.94 14.86 23.86C14.82 23.94 14.76 24 14.72 24.02C14.68 24.06 14.64 24.06 14.62 24.06H14.56C14.54 24.06 14.54 24.08 14.56 24.1C14.44 24.06 14.32 24.06 14.22 24.06C14.12 24.06 14.04 24.06 13.98 24.06C13.92 24.06 13.88 24.06 13.86 24.04C13.82 24.04 13.82 23.98 13.82 23.9C13.7 23.94 13.56 24 13.38 24.08C13.18 24.18 13.06 24.24 13 24.24C12.92 24.14 12.84 24.1 12.78 24.12C12.72 24.16 12.6 24.16 12.44 24.12C12.4 24.12 12.3 24.12 12.14 24.1C11.98 24.08 11.88 24.06 11.88 24.04C11.8 24.1 11.68 24.14 11.54 24.14C11.38 24.14 11.18 24.1 10.9 23.98C10.82 23.98 10.76 23.96 10.7 23.96C10.64 23.96 10.58 23.98 10.52 23.98C10.46 24 10.4 24 10.32 24C10.24 24 10.16 23.96 10.04 23.92C9.94 23.92 9.82 23.94 9.68 24C9.54 24.06 9.44 24.08 9.4 24.04C9.36 24.08 9.3 24.08 9.18 24.08C9.06 24.08 8.92 24.1 8.78 24.1C8.62 24.14 8.5 24.14 8.42 24.12C8.32 24.12 8.22 24.1 8.14 24.1C8.1 24.08 8.04 24.06 7.96 24.04C7.88 24.02 7.8 24 7.72 24C7.64 24 7.58 24.02 7.54 24.02C7.5 24.04 7.48 24.06 7.5 24.08C7.38 24.02 7.28 23.98 7.2 23.96C7.12 23.96 7.04 23.94 7 23.94H6.84C6.78 23.94 6.72 23.92 6.66 23.86L6.5 23.78ZM6.62 18.2C6.58 18.2 6.6 18.2 6.66 18.2C6.7 18.2 6.74 18.12 6.76 17.92L6.84 18.16L6.94 17.68C6.86 17.82 6.82 17.88 6.84 17.86C6.84 17.84 6.9 17.76 7 17.62C7.06 17.48 7.08 17.38 7.08 17.34C7.08 17.3 7.06 17.26 7.04 17.18C7.14 17.02 7.26 16.9 7.42 16.82C7.56 16.76 7.66 16.72 7.74 16.68C7.82 16.48 7.88 16.32 7.92 16.22C7.96 16.12 8 16.02 8.04 15.9C8.1 15.8 8.18 15.7 8.3 15.58C8.4 15.46 8.44 15.38 8.44 15.3C8.66 15.16 8.82 15.04 8.9 14.92C8.98 14.8 9.04 14.68 9.12 14.52C9.2 14.36 9.28 14.26 9.34 14.2C9.38 14.14 9.52 14.1 9.76 14.1C9.76 14.02 9.76 13.94 9.8 13.84C9.82 13.74 9.86 13.64 9.9 13.56C9.94 13.48 9.96 13.4 10 13.32C10.04 13.24 10.06 13.2 10.06 13.16C10.1 13.2 10.16 13.16 10.24 13.04C10.3 12.94 10.42 12.86 10.62 12.78C10.58 12.56 10.6 12.4 10.66 12.28C10.7 12.16 10.74 12.16 10.78 12.26L11.22 11.7C11.06 11.64 10.98 11.56 11.02 11.46C11.04 11.38 11.06 11.32 11.1 11.28C11.1 11.2 11.12 11.14 11.14 11.1C11.16 11.06 11.18 11.02 11.2 10.98C11.2 10.94 11.22 10.9 11.22 10.84C11.22 10.8 11.2 10.72 11.2 10.6C11.24 10.52 11.26 10.44 11.26 10.38C11.26 10.34 11.24 10.3 11.24 10.26C11.24 10.22 11.24 10.2 11.24 10.18C11.24 10.18 11.28 10.16 11.34 10.14C11.26 9.98 11.24 9.84 11.32 9.76C11.4 9.68 11.42 9.56 11.42 9.42C11.46 9.38 11.48 9.34 11.48 9.26C11.48 9.2 11.5 9.14 11.52 9.08C11.52 9.02 11.54 8.96 11.58 8.88C11.62 8.82 11.68 8.76 11.78 8.72C11.74 8.7 11.8 8.62 11.96 8.48C12.1 8.36 12.32 8.26 12.64 8.18C12.72 8.28 12.8 8.36 12.88 8.42C12.96 8.5 13.14 8.64 13.4 8.84C13.52 8.88 13.62 8.94 13.7 9.06C13.78 9.18 13.78 9.28 13.72 9.34L13.84 9.42L13.76 10.16L13.66 10.9L13.38 11.72L13.2 12.38C13.32 12.38 13.4 12.4 13.46 12.44C13.5 12.48 13.54 12.52 13.58 12.58C13.62 12.66 13.64 12.74 13.66 12.82C13.68 12.92 13.72 13.02 13.78 13.14C13.86 13.2 13.96 13.24 14.04 13.26C14.12 13.3 14.22 13.32 14.3 13.36C14.38 13.4 14.44 13.44 14.52 13.5C14.58 13.56 14.64 13.64 14.72 13.76C14.6 13.78 14.76 13.88 15.16 14.04C15.12 14.08 15.12 14.12 15.16 14.18C15.2 14.24 15.24 14.3 15.28 14.36C15.32 14.44 15.36 14.5 15.4 14.56C15.44 14.62 15.46 14.66 15.46 14.68C15.66 14.76 15.78 14.8 15.84 14.84C15.9 14.88 15.9 14.94 15.84 15C15.88 15.12 15.92 15.2 16 15.24C16.06 15.3 16.12 15.34 16.18 15.38C16.24 15.42 16.3 15.46 16.34 15.5C16.38 15.54 16.38 15.62 16.38 15.7C16.74 15.92 16.92 16.02 16.92 16C17.1 16.06 17.26 16.14 17.38 16.26C17.5 16.38 17.62 16.52 17.74 16.72L18.02 16.86C18.2 17.06 18.32 17.2 18.38 17.28C18.42 17.36 18.46 17.4 18.5 17.42C18.56 17.58 18.64 17.72 18.74 17.82C18.82 17.94 18.86 18.06 18.84 18.22C18.8 18.26 18.76 18.3 18.76 18.36C18.76 18.44 18.74 18.5 18.74 18.56C18.72 18.64 18.7 18.7 18.66 18.74C18.62 18.78 18.54 18.8 18.44 18.8C18.4 18.92 18.32 19 18.18 19.06C18.02 19.12 17.94 19.12 17.9 19.04C17.62 19.14 17.44 19.18 17.36 19.18C17.28 19.18 17.18 19.04 17.1 18.8C17.14 18.92 17.12 18.92 17.04 18.82C16.96 18.74 16.84 18.66 16.66 18.58C16.76 18.56 16.78 18.54 16.7 18.5C16.62 18.46 16.52 18.42 16.4 18.34C16.42 18.22 16.38 18.14 16.26 18.1C16.14 18.08 16.08 18.06 16.12 18.04C16 17.98 15.92 17.92 15.88 17.88C15.82 17.84 15.78 17.8 15.74 17.76L15.62 17.66C15.58 17.62 15.52 17.58 15.44 17.54C15.28 17.32 15.18 17.18 15.12 17.1C15.06 17.02 14.98 17.02 14.9 17.08C14.82 16.98 14.78 16.88 14.74 16.8C14.7 16.72 14.68 16.66 14.64 16.6C14.6 16.54 14.56 16.48 14.52 16.42C14.46 16.38 14.38 16.3 14.28 16.22C14.3 16.18 14.28 16.12 14.22 16.04C14.16 15.98 14.12 15.88 14.1 15.72C14.02 15.72 13.94 15.72 13.9 15.68C13.84 15.64 13.78 15.6 13.74 15.56C13.68 15.52 13.62 15.5 13.56 15.46C13.5 15.44 13.44 15.44 13.36 15.46C13.32 15.36 13.24 15.22 13.16 15.04C13.06 14.88 12.94 14.76 12.82 14.68C12.9 14.58 12.78 14.48 12.5 14.4C12.5 14.34 12.46 14.26 12.42 14.16C12.36 14.08 12.34 13.96 12.34 13.8C12.18 13.88 12.08 14 12.04 14.18C12 14.38 12.04 14.52 12.14 14.6C12 14.56 11.9 14.58 11.84 14.64C11.78 14.72 11.68 14.86 11.56 15.1C11.54 15.14 11.48 15.2 11.4 15.28C11.3 15.36 11.2 15.48 11.1 15.62C10.98 15.56 10.92 15.6 10.9 15.72C10.86 15.84 10.9 15.96 11.02 16.06C10.94 16.16 10.86 16.26 10.76 16.36C10.64 16.48 10.58 16.58 10.56 16.7C10.44 16.7 10.34 16.7 10.3 16.7C10.24 16.7 10.2 16.74 10.18 16.78C10.16 16.82 10.14 16.9 10.14 16.98C10.12 17.06 10.08 17.18 10.04 17.3C9.96 17.28 9.9 17.28 9.86 17.3C9.82 17.32 9.8 17.34 9.78 17.38C9.76 17.42 9.74 17.44 9.74 17.48C9.74 17.52 9.72 17.52 9.7 17.5C9.54 17.68 9.46 17.84 9.42 18C9.38 18.16 9.32 18.26 9.24 18.28C9.1 18.38 9 18.46 8.92 18.52C8.84 18.6 8.78 18.66 8.74 18.7C8.7 18.76 8.64 18.82 8.6 18.86C8.54 18.92 8.46 18.98 8.36 19.06C8.36 19.26 8.26 19.36 8.1 19.38C7.94 19.4 7.76 19.38 7.56 19.34C7.5 19.4 7.4 19.4 7.26 19.36C7.1 19.32 6.94 19.3 6.76 19.3C6.78 19.26 6.78 19.18 6.76 19.08C6.74 19 6.72 18.9 6.68 18.8C6.64 18.72 6.6 18.62 6.56 18.54C6.52 18.46 6.52 18.4 6.54 18.36L6.62 18.2ZM24.9259 13.8H25.3459C25.3459 13.92 25.4259 13.96 25.5859 13.94C25.7459 13.94 25.9259 13.96 26.1659 14.04L26.7459 13.92L27.3459 13.76L28.1059 13.72H28.7259L29.5659 13.76L30.1659 13.84L31.0859 13.72L31.6859 13.9L31.7459 13.7C31.8059 13.82 31.9059 13.84 32.0259 13.76C32.1459 13.68 32.2059 13.5 32.1659 13.18L32.1859 12.16H31.5459L30.6059 12.26L29.8659 12.32L29.4459 12.42L28.4859 12.28L27.8259 12.26L27.3659 12.2L26.7059 12.22L25.8059 12.46L25.1859 12.42L24.3659 12.46L24.7259 13.22C24.6459 13.2 24.6059 13.2 24.5659 13.24C24.5259 13.28 24.5259 13.3 24.5259 13.32V13.52C24.4659 13.64 24.5459 13.74 24.7659 13.82L24.9259 13.8ZM23.0459 14.68C22.8259 14.64 22.7259 14.56 22.7259 14.48C22.7259 14.4 22.7059 14.36 22.6659 14.32C22.5459 14.1 22.5059 13.96 22.5059 13.88C22.5059 13.82 22.5859 13.74 22.7859 13.64C22.6659 13.46 22.6059 13.26 22.5859 13.02C22.5659 12.8 22.5859 12.66 22.6259 12.62C22.5859 12.52 22.5859 12.4 22.5859 12.26C22.5859 12.14 22.5659 12.04 22.5459 11.96C22.6859 11.52 22.6659 11.28 22.4659 11.24C22.5259 11.02 22.6059 10.84 22.6859 10.68C22.7659 10.52 22.7859 10.4 22.7859 10.28C22.7059 10.24 22.6859 10.18 22.7259 10.1C22.7659 10.02 22.7259 9.92 22.6459 9.82C22.6059 9.78 22.5859 9.72 22.5859 9.64C22.5859 9.56 22.5859 9.48 22.6259 9.4C22.6459 9.32 22.6859 9.26 22.7459 9.18C22.7859 9.12 22.8659 9.08 22.9659 9.06C22.8859 8.88 22.8259 8.74 22.8259 8.64C22.8059 8.54 22.8659 8.46 22.9859 8.4C23.0859 8.2 23.2059 8.12 23.3259 8.12C23.4459 8.14 23.6059 8.14 23.8259 8.1C23.9659 8 24.1059 7.96 24.2659 8C24.4059 8.04 24.5059 8.16 24.5859 8.32C24.6459 8.48 24.6859 8.58 24.7259 8.6C24.7659 8.64 24.7659 8.7 24.7459 8.82L24.4859 9.14L24.4259 9.92L24.4659 10.36L25.2459 10.28L26.0259 10.52L26.7259 10.62L27.1259 10.36L27.8459 10.54H28.7259L29.2859 10.28L30.1059 10.56L30.4659 10.36L31.4459 10.54L32.1859 10.6C32.1059 10.48 32.0459 10.32 31.9659 10.16C31.8859 10 31.8659 9.9 31.8659 9.82C31.9459 9.8 31.9859 9.7 32.0059 9.54C32.0259 9.38 32.0059 9.24 31.9459 9.12C31.9859 9 32.0459 8.88 32.1659 8.76C32.2859 8.66 32.3659 8.6 32.4059 8.56C32.3459 8.32 32.3859 8.16 32.5259 8.1C32.6659 8.04 32.8259 8.02 32.9859 8.02C33.0859 8.06 33.2059 8.08 33.3659 8.12C33.5259 8.16 33.6259 8.2 33.7059 8.2C33.7059 8.24 33.7259 8.28 33.7259 8.36C33.7259 8.44 33.7259 8.54 33.7259 8.62C33.7259 8.7 33.7459 8.78 33.7459 8.86C33.7459 8.94 33.7659 9 33.8059 9.04C33.8059 9.18 33.8459 9.3 33.9459 9.38C34.0259 9.48 34.0659 9.52 34.0659 9.48C34.0859 9.64 34.0659 9.78 33.9859 9.92C33.9059 10.06 33.9059 10.16 33.9459 10.22C34.0659 10.38 34.1059 10.5 34.0859 10.62C34.0459 10.74 34.0259 10.8 33.9859 10.8C33.9459 10.96 33.9259 11.06 33.9259 11.14C33.9259 11.22 33.9259 11.3 33.9259 11.36C33.9259 11.42 33.9659 11.48 34.0059 11.54C34.0459 11.6 34.1259 11.68 34.2459 11.76C34.2059 11.82 34.1659 11.9 34.1259 12.02C34.0659 12.14 34.0259 12.24 34.0259 12.34C34.0459 12.46 34.0459 12.56 34.0459 12.62C34.0259 12.7 33.9659 12.8 33.8459 12.96C33.9459 13.08 33.9659 13.2 33.9059 13.34C33.8459 13.48 33.8259 13.58 33.8459 13.62C33.9059 13.76 33.9459 13.88 33.9659 13.96C33.9659 14.04 33.9659 14.12 33.9459 14.2C33.9259 14.28 33.9059 14.34 33.8859 14.42C33.8459 14.5 33.8459 14.58 33.8459 14.68C33.7059 14.84 33.6059 14.94 33.5659 15.02C33.5259 15.1 33.4259 15.2 33.2859 15.28C33.2859 15.24 33.2859 15.24 33.2859 15.26C33.2859 15.3 33.2659 15.32 33.2459 15.36C33.2059 15.4 33.1659 15.44 33.1059 15.48C33.0259 15.52 32.9459 15.54 32.8659 15.54C32.7059 15.54 32.5459 15.56 32.3859 15.58C32.2059 15.62 32.0859 15.64 32.0259 15.66C31.9059 15.66 31.7859 15.66 31.7059 15.66C31.6059 15.66 31.5059 15.68 31.4259 15.72C31.3259 15.76 31.2259 15.78 31.1059 15.82C30.9859 15.86 30.8259 15.9 30.6659 15.94C30.6859 15.88 30.6459 15.84 30.5259 15.8C30.4059 15.78 30.2659 15.74 30.1259 15.68C30.0059 15.68 29.8659 15.7 29.7259 15.78C29.5859 15.86 29.4859 15.92 29.4259 15.98C29.3059 15.94 29.2059 15.88 29.1259 15.84C29.0459 15.8 28.9859 15.78 28.9059 15.76C28.8259 15.74 28.7459 15.72 28.6659 15.72C28.5659 15.72 28.4459 15.74 28.3059 15.78L27.6459 15.8L27.1459 15.64C27.0259 15.68 26.9459 15.72 26.8659 15.72C26.7859 15.74 26.6859 15.76 26.6059 15.76C26.5059 15.76 26.4059 15.76 26.2859 15.76C26.1659 15.76 26.0059 15.74 25.8459 15.72C25.8059 15.72 25.7459 15.72 25.7059 15.74C25.6659 15.76 25.6059 15.78 25.5659 15.78C25.5059 15.8 25.4659 15.8 25.4259 15.8C25.3859 15.8 25.3459 15.76 25.3459 15.68C25.1859 15.64 25.0459 15.6 24.9259 15.6C24.8059 15.6 24.6659 15.62 24.5459 15.66C24.3059 15.6 24.1259 15.54 23.9659 15.5C23.8059 15.46 23.6059 15.42 23.3859 15.4C23.3459 15.42 23.3059 15.4 23.2859 15.36C23.2459 15.32 23.2259 15.26 23.1859 15.18C23.1459 15.12 23.1059 15.06 23.0659 14.98C23.0259 14.92 22.9659 14.88 22.8859 14.84L23.0459 14.68ZM24.4859 24.76C24.4059 24.8 24.3459 24.82 24.3059 24.82C24.2459 24.82 24.1859 24.8 24.1459 24.76C24.1059 24.74 24.0659 24.72 24.0259 24.68C23.9859 24.66 23.9459 24.66 23.9459 24.66C23.7459 24.56 23.6059 24.52 23.5059 24.52C23.4059 24.54 23.3859 24.54 23.4459 24.5C23.3459 24.38 23.2459 24.26 23.1659 24.16C23.0859 24.08 23.0459 23.9 23.0859 23.62C23.0059 23.66 22.9459 23.6 22.9059 23.44C22.8659 23.28 22.8259 23.16 22.8059 23.08L22.9459 22.32L22.9659 21.54L22.9459 20.7C22.9059 20.54 22.9059 20.44 22.9259 20.42C22.9459 20.42 23.0459 20.38 23.2059 20.3L23.4459 20.06C23.5459 19.96 23.6659 19.9 23.7859 19.88C23.9059 19.96 24.0459 19.98 24.1659 19.96C24.2859 19.96 24.3659 20.04 24.4059 20.22C24.4459 20.34 24.5059 20.4 24.5859 20.42C24.6459 20.46 24.7259 20.56 24.8059 20.72L24.9059 21.6L24.8659 22.3C24.7459 22.56 24.7659 22.74 24.9259 22.86C25.0659 22.98 25.2459 23.02 25.4859 22.94L26.0459 22.92L26.7259 22.98L27.5659 22.96L28.3659 22.82L28.7659 22.84L29.7059 23.16L30.4459 22.76L30.9859 22.88L31.6259 23.1L32.1459 22.86L33.0859 22.8C33.1659 22.88 33.2459 22.94 33.3059 22.94C33.3459 22.94 33.4059 22.94 33.4459 22.94C33.4859 22.94 33.5459 22.92 33.6259 22.92C33.6859 22.92 33.7859 22.92 33.9059 22.96C33.9059 23 33.9459 23.06 34.0059 23.1C34.0459 23.16 34.1059 23.22 34.1459 23.3C34.1859 23.38 34.2059 23.48 34.2259 23.58C34.2259 23.7 34.2059 23.82 34.1459 23.94C34.1859 24.1 34.1859 24.2 34.1859 24.28C34.1859 24.36 34.0459 24.4 33.8059 24.36C33.8659 24.6 33.8459 24.7 33.7459 24.7C33.6459 24.7 33.4659 24.68 33.2059 24.62L32.8259 24.92H32.0059L31.5059 24.66L30.8259 24.92L29.8059 24.64H29.5059L28.5059 24.84L28.0259 24.7L27.4059 24.86L26.6259 24.82L26.1859 24.98L25.1859 24.78L24.6859 24.84L24.4859 24.76ZM22.8059 19.16C22.6859 19.12 22.6059 19.1 22.5459 19.06C22.4659 19.04 22.4059 19.02 22.3659 19C22.3259 18.98 22.2659 18.96 22.2059 18.94C22.1459 18.94 22.0659 18.92 21.9859 18.9C21.9459 18.86 21.9259 18.8 21.9259 18.72C21.9259 18.64 21.9259 18.58 21.9259 18.5C21.9259 18.44 21.9259 18.38 21.9259 18.32C21.9259 18.26 21.9059 18.2 21.8659 18.16C21.8259 18.04 21.8259 17.94 21.8659 17.86C21.8859 17.78 21.9259 17.72 21.9859 17.68C22.0259 17.64 22.0859 17.6 22.1459 17.6C22.1859 17.6 22.2259 17.6 22.2659 17.64C22.3059 17.52 22.3259 17.44 22.3659 17.38C22.3859 17.32 22.4059 17.28 22.4459 17.24C22.4859 17.22 22.5259 17.2 22.5659 17.18C22.6059 17.16 22.6859 17.12 22.7659 17.08C22.8859 17.1 22.9659 17.12 23.0259 17.14C23.0859 17.16 23.1259 17.18 23.1659 17.2C23.1859 17.24 23.2059 17.26 23.2259 17.28C23.2459 17.32 23.2859 17.34 23.3459 17.36C23.5059 17.32 23.6859 17.28 23.8459 17.24C24.0059 17.2 24.1859 17.16 24.3659 17.08L24.4459 17.1L24.6059 17.14C24.6459 17.16 24.7059 17.16 24.7459 17.16C24.7859 17.16 24.8059 17.14 24.8059 17.1L25.5659 17.4L26.3859 17.12L27.1859 17.08L27.8459 17.36L28.4259 17.3L29.0859 17.02L29.7859 17.24L30.3259 17.3L31.1259 17.26C31.3259 17.18 31.4659 17.16 31.5859 17.2C31.6859 17.24 31.8259 17.22 31.9859 17.18C32.0659 17.16 32.1459 17.14 32.2059 17.14C32.2459 17.14 32.3059 17.12 32.3659 17.12C32.4259 17.12 32.5059 17.14 32.5859 17.14C32.6659 17.14 32.7659 17.16 32.9259 17.16C32.9659 17.2 33.0459 17.22 33.1659 17.2C33.2859 17.2 33.4059 17.16 33.5459 17.12C33.6659 17.1 33.7459 17.1 33.8259 17.12C33.9059 17.16 33.9659 17.2 34.0259 17.24C34.0659 17.28 34.1259 17.34 34.1659 17.38C34.2059 17.44 34.2459 17.48 34.2859 17.5C34.3259 17.5 34.3659 17.54 34.4059 17.6C34.4459 17.68 34.4859 17.76 34.5259 17.84C34.5659 17.92 34.5859 18.02 34.5859 18.1C34.5859 18.2 34.5859 18.28 34.5459 18.32C34.6059 18.44 34.6059 18.52 34.5659 18.58C34.5059 18.66 34.3659 18.76 34.1659 18.88C34.1059 18.9 34.0259 18.9 33.9259 18.9C33.8259 18.9 33.7659 18.98 33.7659 19.12L33.0259 18.98L32.3659 19.02L31.5859 19.12C31.5059 19.06 31.3859 19.02 31.2259 19C31.0459 19 30.8659 19.04 30.6859 19.14C30.6459 19.1 30.6059 19.08 30.5259 19.08C30.4459 19.08 30.3859 19.1 30.3059 19.12C30.2259 19.14 30.1459 19.16 30.0859 19.18C30.0259 19.2 30.0059 19.2 30.0259 19.2L29.7459 19.78L29.7059 20.36L29.9859 20.96L29.9259 21.18L29.8459 21.3C29.7259 21.4 29.6459 21.5 29.5659 21.58C29.4859 21.66 29.4059 21.74 29.3259 21.8C29.2459 21.86 29.1659 21.9 29.0859 21.9C29.0059 21.9 28.9259 21.88 28.8459 21.8C28.7259 21.9 28.6459 21.96 28.5659 21.98C28.4859 22 28.4259 22 28.3659 21.98C28.3059 21.96 28.2459 21.94 28.2059 21.9C28.1459 21.88 28.0859 21.86 28.0459 21.84C28.0059 21.7 27.9659 21.56 27.9259 21.44C27.8859 21.32 27.9059 21.24 27.9459 21.2L27.7459 20.3L27.8259 19.94L27.8659 19.28L27.0459 19.16L26.5459 19.26L25.8659 19.04L25.1259 18.92C24.9659 19 24.8259 19.04 24.7059 19.04C24.5859 19.06 24.5059 19.1 24.5059 19.14C24.2859 19.12 24.1259 19.12 24.0459 19.12C23.9659 19.14 23.8659 19.14 23.7659 19.14C23.6059 19.16 23.4259 19.14 23.2259 19.1C23.0059 19.06 22.8659 19.04 22.7859 19.02L22.8059 19.16ZM37.6523 23.78C37.5523 23.82 37.4723 23.8 37.4323 23.72C37.3723 23.64 37.3523 23.56 37.3923 23.44C37.1923 23.34 37.0923 23.26 37.0523 23.22C37.0123 23.18 36.9523 23.08 36.9123 22.9C36.9923 22.88 37.0323 22.84 37.0723 22.78C37.1123 22.72 37.1323 22.66 37.1323 22.6C37.1323 22.54 37.1323 22.48 37.1323 22.44C37.1323 22.4 37.1323 22.4 37.1523 22.4C37.3123 22.28 37.4723 22.14 37.6323 21.98C37.7923 21.82 37.9723 21.78 38.1923 21.82L38.4523 22.04L38.9523 21.96C38.9523 22 38.9723 22.02 39.0123 22.02C39.0523 22.02 39.1123 22.02 39.1723 22C39.2323 22 39.2923 22 39.3523 22C39.4123 22 39.4723 22.02 39.5123 22.06C39.7523 22.1 39.9523 22.08 40.0723 22.02C40.1923 21.98 40.3523 21.96 40.5323 21.96C40.5723 22.04 40.5923 22.08 40.6323 22.08C40.6723 22.1 40.7123 22.12 40.7723 22.12C40.8123 22.12 40.8923 22.14 40.9723 22.16C41.0523 22.18 41.1723 22.22 41.3323 22.28C41.4723 22.18 41.5723 22.12 41.6523 22.1C41.7123 22.08 41.7923 22.14 41.9123 22.3C42.1123 22.22 42.2723 22.18 42.3923 22.22C42.5123 22.26 42.6123 22.3 42.6923 22.3C42.7323 22.16 42.7523 22 42.7523 21.84C42.7323 21.68 42.6923 21.6 42.6523 21.56C42.7123 21.44 42.7523 21.36 42.7723 21.28C42.7723 21.2 42.7923 21.14 42.7923 21.1C42.7923 21.06 42.7923 21.02 42.7923 20.98C42.7923 20.96 42.8323 20.92 42.8923 20.88C42.7723 20.78 42.7123 20.68 42.7323 20.56C42.7323 20.44 42.7523 20.26 42.7923 20C42.7523 19.86 42.7723 19.7 42.8123 19.54C42.8523 19.38 42.8923 19.22 42.9323 19.06C42.8523 19.02 42.8123 18.92 42.8523 18.78C42.8723 18.64 42.8723 18.54 42.8723 18.5C42.9123 18.42 42.9323 18.3 42.9323 18.18C42.9323 18.06 42.9123 17.92 42.8523 17.72C42.8923 17.68 42.9323 17.64 42.9323 17.58C42.9323 17.52 42.9123 17.46 42.9123 17.4C42.9123 17.34 42.9123 17.3 42.9323 17.26C42.9323 17.24 42.9923 17.24 43.0723 17.24C43.2323 17.06 43.3523 16.98 43.4723 16.98C43.5723 16.98 43.6923 16.98 43.8323 16.96C43.9323 16.98 44.0123 16.96 44.0923 16.92C44.1523 16.88 44.2923 16.9 44.4923 16.98C44.5723 17.1 44.6123 17.18 44.6323 17.26C44.6323 17.34 44.6323 17.42 44.6323 17.48C44.6323 17.56 44.6323 17.62 44.6323 17.68C44.6323 17.76 44.6523 17.82 44.6923 17.86V17.94C44.6923 17.98 44.7123 18.04 44.7323 18.1C44.7323 18.18 44.7523 18.24 44.7723 18.3C44.7923 18.36 44.8123 18.4 44.8523 18.4C44.8123 18.56 44.7723 18.66 44.7523 18.74C44.7123 18.82 44.6923 18.9 44.6723 18.98C44.6523 19.06 44.6323 19.14 44.6123 19.22C44.5923 19.3 44.5723 19.42 44.5323 19.56C44.5923 19.56 44.6323 19.6 44.6323 19.66C44.6323 19.72 44.6123 19.78 44.5923 19.84C44.5723 19.9 44.5523 19.96 44.5323 20C44.4923 20.06 44.4923 20.08 44.4923 20.04L44.5123 20.9L44.4723 21.44L44.6923 22.18C44.7323 22.22 44.7723 22.24 44.8523 22.24C44.9123 22.24 44.9723 22.24 45.0523 22.22C45.1323 22.22 45.1923 22.22 45.2523 22.22C45.2923 22.24 45.3323 22.28 45.3523 22.36C45.4523 22.28 45.5323 22.22 45.6123 22.18C45.6723 22.14 45.7323 22.12 45.8123 22.1C45.8723 22.1 45.9523 22.1 46.0323 22.1C46.1123 22.12 46.2323 22.14 46.3923 22.14C46.4923 22.08 46.5923 22.06 46.6723 22.08C46.7523 22.1 46.8923 22.08 47.0523 22.04C47.1323 22.12 47.2123 22.14 47.2723 22.14C47.3123 22.14 47.3523 22.14 47.3923 22.12C47.4323 22.1 47.4523 22.08 47.4923 22.04C47.5323 22 47.5723 21.98 47.6323 21.96C47.7923 22.12 47.9323 22.18 48.0723 22.16C48.2123 22.14 48.2723 22.1 48.2723 22.02H48.6523C48.8323 22.02 48.9723 22.06 49.0923 22.1C49.0923 22.06 49.1323 22.06 49.1723 22.06C49.2123 22.06 49.2523 22.08 49.3323 22.08C49.3923 22.08 49.4723 22.1 49.5523 22.1C49.6323 22.1 49.7123 22.08 49.7923 22.04L49.8123 22.06C49.8523 22.06 49.8923 22.06 49.9723 22.08C50.0323 22.12 50.0923 22.14 50.1523 22.16C50.2123 22.2 50.2723 22.22 50.3123 22.24C50.3523 22.28 50.3523 22.28 50.3523 22.24C50.4123 22.36 50.4723 22.46 50.5523 22.58C50.6123 22.7 50.6723 22.8 50.7323 22.88C50.6123 23.04 50.5523 23.2 50.5323 23.32C50.5123 23.44 50.4723 23.58 50.3923 23.74C50.3123 23.78 50.2323 23.78 50.1923 23.76C50.1323 23.76 49.9923 23.76 49.7923 23.76C49.6723 23.84 49.5323 23.92 49.3323 23.98C49.1323 24.06 48.9123 24.08 48.6323 24.04C48.5123 24.08 48.4123 24.08 48.3323 24.06C48.2523 24.06 48.1523 24.04 48.0723 24.02C47.9723 24 47.8723 24 47.7723 24C47.6523 24 47.5523 24.04 47.4323 24.08C47.3323 24.12 47.2123 24.12 47.0923 24.12C46.9523 24.12 46.8123 24.1 46.6723 24.1C46.6323 24.12 46.5923 24.1 46.5123 24.04C46.4323 24 46.2723 23.94 46.0123 23.86C45.9723 23.94 45.9123 24 45.8723 24.02C45.8323 24.06 45.7923 24.06 45.7723 24.06H45.7123C45.6923 24.06 45.6923 24.08 45.7123 24.1C45.5923 24.06 45.4723 24.06 45.3723 24.06C45.2723 24.06 45.1923 24.06 45.1323 24.06C45.0723 24.06 45.0323 24.06 45.0123 24.04C44.9723 24.04 44.9723 23.98 44.9723 23.9C44.8523 23.94 44.7123 24 44.5323 24.08C44.3323 24.18 44.2123 24.24 44.1523 24.24C44.0723 24.14 43.9923 24.1 43.9323 24.12C43.8723 24.16 43.7523 24.16 43.5923 24.12C43.5523 24.12 43.4523 24.12 43.2923 24.1C43.1323 24.08 43.0323 24.06 43.0323 24.04C42.9523 24.1 42.8323 24.14 42.6923 24.14C42.5323 24.14 42.3323 24.1 42.0523 23.98C41.9723 23.98 41.9123 23.96 41.8523 23.96C41.7923 23.96 41.7323 23.98 41.6723 23.98C41.6123 24 41.5523 24 41.4723 24C41.3923 24 41.3123 23.96 41.1923 23.92C41.0923 23.92 40.9723 23.94 40.8323 24C40.6923 24.06 40.5923 24.08 40.5523 24.04C40.5123 24.08 40.4523 24.08 40.3323 24.08C40.2123 24.08 40.0723 24.1 39.9323 24.1C39.7723 24.14 39.6523 24.14 39.5723 24.12C39.4723 24.12 39.3723 24.1 39.2923 24.1C39.2523 24.08 39.1923 24.06 39.1123 24.04C39.0323 24.02 38.9523 24 38.8723 24C38.7923 24 38.7323 24.02 38.6923 24.02C38.6523 24.04 38.6323 24.06 38.6523 24.08C38.5323 24.02 38.4323 23.98 38.3523 23.96C38.2723 23.96 38.1923 23.94 38.1523 23.94H37.9923C37.9323 23.94 37.8723 23.92 37.8123 23.86L37.6523 23.78ZM37.7723 18.2C37.7323 18.2 37.7523 18.2 37.8123 18.2C37.8523 18.2 37.8923 18.12 37.9123 17.92L37.9923 18.16L38.0923 17.68C38.0123 17.82 37.9723 17.88 37.9923 17.86C37.9923 17.84 38.0523 17.76 38.1523 17.62C38.2123 17.48 38.2323 17.38 38.2323 17.34C38.2323 17.3 38.2123 17.26 38.1923 17.18C38.2923 17.02 38.4123 16.9 38.5723 16.82C38.7123 16.76 38.8123 16.72 38.8923 16.68C38.9723 16.48 39.0323 16.32 39.0723 16.22C39.1123 16.12 39.1523 16.02 39.1923 15.9C39.2523 15.8 39.3323 15.7 39.4523 15.58C39.5523 15.46 39.5923 15.38 39.5923 15.3C39.8123 15.16 39.9723 15.04 40.0523 14.92C40.1323 14.8 40.1923 14.68 40.2723 14.52C40.3523 14.36 40.4323 14.26 40.4923 14.2C40.5323 14.14 40.6723 14.1 40.9123 14.1C40.9123 14.02 40.9123 13.94 40.9523 13.84C40.9723 13.74 41.0123 13.64 41.0523 13.56C41.0923 13.48 41.1123 13.4 41.1523 13.32C41.1923 13.24 41.2123 13.2 41.2123 13.16C41.2523 13.2 41.3123 13.16 41.3923 13.04C41.4523 12.94 41.5723 12.86 41.7723 12.78C41.7323 12.56 41.7523 12.4 41.8123 12.28C41.8523 12.16 41.8923 12.16 41.9323 12.26L42.3723 11.7C42.2123 11.64 42.1323 11.56 42.1723 11.46C42.1923 11.38 42.2123 11.32 42.2523 11.28C42.2523 11.2 42.2723 11.14 42.2923 11.1C42.3123 11.06 42.3323 11.02 42.3523 10.98C42.3523 10.94 42.3723 10.9 42.3723 10.84C42.3723 10.8 42.3523 10.72 42.3523 10.6C42.3923 10.52 42.4123 10.44 42.4123 10.38C42.4123 10.34 42.3923 10.3 42.3923 10.26C42.3923 10.22 42.3923 10.2 42.3923 10.18C42.3923 10.18 42.4323 10.16 42.4923 10.14C42.4123 9.98 42.3923 9.84 42.4723 9.76C42.5523 9.68 42.5723 9.56 42.5723 9.42C42.6123 9.38 42.6323 9.34 42.6323 9.26C42.6323 9.2 42.6523 9.14 42.6723 9.08C42.6723 9.02 42.6923 8.96 42.7323 8.88C42.7723 8.82 42.8323 8.76 42.9323 8.72C42.8923 8.7 42.9523 8.62 43.1123 8.48C43.2523 8.36 43.4723 8.26 43.7923 8.18C43.8723 8.28 43.9523 8.36 44.0323 8.42C44.1123 8.5 44.2923 8.64 44.5523 8.84C44.6723 8.88 44.7723 8.94 44.8523 9.06C44.9323 9.18 44.9323 9.28 44.8723 9.34L44.9923 9.42L44.9123 10.16L44.8123 10.9L44.5323 11.72L44.3523 12.38C44.4723 12.38 44.5523 12.4 44.6123 12.44C44.6523 12.48 44.6923 12.52 44.7323 12.58C44.7723 12.66 44.7923 12.74 44.8123 12.82C44.8323 12.92 44.8723 13.02 44.9323 13.14C45.0123 13.2 45.1123 13.24 45.1923 13.26C45.2723 13.3 45.3723 13.32 45.4523 13.36C45.5323 13.4 45.5923 13.44 45.6723 13.5C45.7323 13.56 45.7923 13.64 45.8723 13.76C45.7523 13.78 45.9123 13.88 46.3123 14.04C46.2723 14.08 46.2723 14.12 46.3123 14.18C46.3523 14.24 46.3923 14.3 46.4323 14.36C46.4723 14.44 46.5123 14.5 46.5523 14.56C46.5923 14.62 46.6123 14.66 46.6123 14.68C46.8123 14.76 46.9323 14.8 46.9923 14.84C47.0523 14.88 47.0523 14.94 46.9923 15C47.0323 15.12 47.0723 15.2 47.1523 15.24C47.2123 15.3 47.2723 15.34 47.3323 15.38C47.3923 15.42 47.4523 15.46 47.4923 15.5C47.5323 15.54 47.5323 15.62 47.5323 15.7C47.8923 15.92 48.0723 16.02 48.0723 16C48.2523 16.06 48.4123 16.14 48.5323 16.26C48.6523 16.38 48.7723 16.52 48.8923 16.72L49.1723 16.86C49.3523 17.06 49.4723 17.2 49.5323 17.28C49.5723 17.36 49.6123 17.4 49.6523 17.42C49.7123 17.58 49.7923 17.72 49.8923 17.82C49.9723 17.94 50.0123 18.06 49.9923 18.22C49.9523 18.26 49.9123 18.3 49.9123 18.36C49.9123 18.44 49.8923 18.5 49.8923 18.56C49.8723 18.64 49.8523 18.7 49.8123 18.74C49.7723 18.78 49.6923 18.8 49.5923 18.8C49.5523 18.92 49.4723 19 49.3323 19.06C49.1723 19.12 49.0923 19.12 49.0523 19.04C48.7723 19.14 48.5923 19.18 48.5123 19.18C48.4323 19.18 48.3323 19.04 48.2523 18.8C48.2923 18.92 48.2723 18.92 48.1923 18.82C48.1123 18.74 47.9923 18.66 47.8123 18.58C47.9123 18.56 47.9323 18.54 47.8523 18.5C47.7723 18.46 47.6723 18.42 47.5523 18.34C47.5723 18.22 47.5323 18.14 47.4123 18.1C47.2923 18.08 47.2323 18.06 47.2723 18.04C47.1523 17.98 47.0723 17.92 47.0323 17.88C46.9723 17.84 46.9323 17.8 46.8923 17.76L46.7723 17.66C46.7323 17.62 46.6723 17.58 46.5923 17.54C46.4323 17.32 46.3323 17.18 46.2723 17.1C46.2123 17.02 46.1323 17.02 46.0523 17.08C45.9723 16.98 45.9323 16.88 45.8923 16.8C45.8523 16.72 45.8323 16.66 45.7923 16.6C45.7523 16.54 45.7123 16.48 45.6723 16.42C45.6123 16.38 45.5323 16.3 45.4323 16.22C45.4523 16.18 45.4323 16.12 45.3723 16.04C45.3123 15.98 45.2723 15.88 45.2523 15.72C45.1723 15.72 45.0923 15.72 45.0523 15.68C44.9923 15.64 44.9323 15.6 44.8923 15.56C44.8323 15.52 44.7723 15.5 44.7123 15.46C44.6523 15.44 44.5923 15.44 44.5123 15.46C44.4723 15.36 44.3923 15.22 44.3123 15.04C44.2123 14.88 44.0923 14.76 43.9723 14.68C44.0523 14.58 43.9323 14.48 43.6523 14.4C43.6523 14.34 43.6123 14.26 43.5723 14.16C43.5123 14.08 43.4923 13.96 43.4923 13.8C43.3323 13.88 43.2323 14 43.1923 14.18C43.1523 14.38 43.1923 14.52 43.2923 14.6C43.1523 14.56 43.0523 14.58 42.9923 14.64C42.9323 14.72 42.8323 14.86 42.7123 15.1C42.6923 15.14 42.6323 15.2 42.5523 15.28C42.4523 15.36 42.3523 15.48 42.2523 15.62C42.1323 15.56 42.0723 15.6 42.0523 15.72C42.0123 15.84 42.0523 15.96 42.1723 16.06C42.0923 16.16 42.0123 16.26 41.9123 16.36C41.7923 16.48 41.7323 16.58 41.7123 16.7C41.5923 16.7 41.4923 16.7 41.4523 16.7C41.3923 16.7 41.3523 16.74 41.3323 16.78C41.3123 16.82 41.2923 16.9 41.2923 16.98C41.2723 17.06 41.2323 17.18 41.1923 17.3C41.1123 17.28 41.0523 17.28 41.0123 17.3C40.9723 17.32 40.9523 17.34 40.9323 17.38C40.9123 17.42 40.8923 17.44 40.8923 17.48C40.8923 17.52 40.8723 17.52 40.8523 17.5C40.6923 17.68 40.6123 17.84 40.5723 18C40.5323 18.16 40.4723 18.26 40.3923 18.28C40.2523 18.38 40.1523 18.46 40.0723 18.52C39.9923 18.6 39.9323 18.66 39.8923 18.7C39.8523 18.76 39.7923 18.82 39.7523 18.86C39.6923 18.92 39.6123 18.98 39.5123 19.06C39.5123 19.26 39.4123 19.36 39.2523 19.38C39.0923 19.4 38.9123 19.38 38.7123 19.34C38.6523 19.4 38.5523 19.4 38.4123 19.36C38.2523 19.32 38.0923 19.3 37.9123 19.3C37.9323 19.26 37.9323 19.18 37.9123 19.08C37.8923 19 37.8723 18.9 37.8323 18.8C37.7923 18.72 37.7523 18.62 37.7123 18.54C37.6723 18.46 37.6723 18.4 37.6923 18.36L37.7723 18.2ZM56.0783 13.8H56.4983C56.4983 13.92 56.5783 13.96 56.7383 13.94C56.8983 13.94 57.0783 13.96 57.3183 14.04L57.8983 13.92L58.4983 13.76L59.2583 13.72H59.8783L60.7183 13.76L61.3183 13.84L62.2383 13.72L62.8383 13.9L62.8983 13.7C62.9583 13.82 63.0583 13.84 63.1783 13.76C63.2983 13.68 63.3583 13.5 63.3183 13.18L63.3383 12.16H62.6983L61.7583 12.26L61.0183 12.32L60.5983 12.42L59.6383 12.28L58.9783 12.26L58.5183 12.2L57.8583 12.22L56.9583 12.46L56.3383 12.42L55.5183 12.46L55.8783 13.22C55.7983 13.2 55.7583 13.2 55.7183 13.24C55.6783 13.28 55.6783 13.3 55.6783 13.32V13.52C55.6183 13.64 55.6983 13.74 55.9183 13.82L56.0783 13.8ZM54.1983 14.68C53.9783 14.64 53.8783 14.56 53.8783 14.48C53.8783 14.4 53.8583 14.36 53.8183 14.32C53.6983 14.1 53.6583 13.96 53.6583 13.88C53.6583 13.82 53.7383 13.74 53.9383 13.64C53.8183 13.46 53.7583 13.26 53.7383 13.02C53.7183 12.8 53.7383 12.66 53.7783 12.62C53.7383 12.52 53.7383 12.4 53.7383 12.26C53.7383 12.14 53.7183 12.04 53.6983 11.96C53.8383 11.52 53.8183 11.28 53.6183 11.24C53.6783 11.02 53.7583 10.84 53.8383 10.68C53.9183 10.52 53.9383 10.4 53.9383 10.28C53.8583 10.24 53.8383 10.18 53.8783 10.1C53.9183 10.02 53.8783 9.92 53.7983 9.82C53.7583 9.78 53.7383 9.72 53.7383 9.64C53.7383 9.56 53.7383 9.48 53.7783 9.4C53.7983 9.32 53.8383 9.26 53.8983 9.18C53.9383 9.12 54.0183 9.08 54.1183 9.06C54.0383 8.88 53.9783 8.74 53.9783 8.64C53.9583 8.54 54.0183 8.46 54.1383 8.4C54.2383 8.2 54.3583 8.12 54.4783 8.12C54.5983 8.14 54.7583 8.14 54.9783 8.1C55.1183 8 55.2583 7.96 55.4183 8C55.5583 8.04 55.6583 8.16 55.7383 8.32C55.7983 8.48 55.8383 8.58 55.8783 8.6C55.9183 8.64 55.9183 8.7 55.8983 8.82L55.6383 9.14L55.5783 9.92L55.6183 10.36L56.3983 10.28L57.1783 10.52L57.8783 10.62L58.2783 10.36L58.9983 10.54H59.8783L60.4383 10.28L61.2583 10.56L61.6183 10.36L62.5983 10.54L63.3383 10.6C63.2583 10.48 63.1983 10.32 63.1183 10.16C63.0383 10 63.0183 9.9 63.0183 9.82C63.0983 9.8 63.1383 9.7 63.1583 9.54C63.1783 9.38 63.1583 9.24 63.0983 9.12C63.1383 9 63.1983 8.88 63.3183 8.76C63.4383 8.66 63.5183 8.6 63.5583 8.56C63.4983 8.32 63.5383 8.16 63.6783 8.1C63.8183 8.04 63.9783 8.02 64.1383 8.02C64.2383 8.06 64.3583 8.08 64.5183 8.12C64.6783 8.16 64.7783 8.2 64.8583 8.2C64.8583 8.24 64.8783 8.28 64.8783 8.36C64.8783 8.44 64.8783 8.54 64.8783 8.62C64.8783 8.7 64.8983 8.78 64.8983 8.86C64.8983 8.94 64.9183 9 64.9583 9.04C64.9583 9.18 64.9983 9.3 65.0983 9.38C65.1783 9.48 65.2183 9.52 65.2183 9.48C65.2383 9.64 65.2183 9.78 65.1383 9.92C65.0583 10.06 65.0583 10.16 65.0983 10.22C65.2183 10.38 65.2583 10.5 65.2383 10.62C65.1983 10.74 65.1783 10.8 65.1383 10.8C65.0983 10.96 65.0783 11.06 65.0783 11.14C65.0783 11.22 65.0783 11.3 65.0783 11.36C65.0783 11.42 65.1183 11.48 65.1583 11.54C65.1983 11.6 65.2783 11.68 65.3983 11.76C65.3583 11.82 65.3183 11.9 65.2783 12.02C65.2183 12.14 65.1783 12.24 65.1783 12.34C65.1983 12.46 65.1983 12.56 65.1983 12.62C65.1783 12.7 65.1183 12.8 64.9983 12.96C65.0983 13.08 65.1183 13.2 65.0583 13.34C64.9983 13.48 64.9783 13.58 64.9983 13.62C65.0583 13.76 65.0983 13.88 65.1183 13.96C65.1183 14.04 65.1183 14.12 65.0983 14.2C65.0783 14.28 65.0583 14.34 65.0383 14.42C64.9983 14.5 64.9983 14.58 64.9983 14.68C64.8583 14.84 64.7583 14.94 64.7183 15.02C64.6783 15.1 64.5783 15.2 64.4383 15.28C64.4383 15.24 64.4383 15.24 64.4383 15.26C64.4383 15.3 64.4183 15.32 64.3983 15.36C64.3583 15.4 64.3183 15.44 64.2583 15.48C64.1783 15.52 64.0983 15.54 64.0183 15.54C63.8583 15.54 63.6983 15.56 63.5383 15.58C63.3583 15.62 63.2383 15.64 63.1783 15.66C63.0583 15.66 62.9383 15.66 62.8583 15.66C62.7583 15.66 62.6583 15.68 62.5783 15.72C62.4783 15.76 62.3783 15.78 62.2583 15.82C62.1383 15.86 61.9783 15.9 61.8183 15.94C61.8383 15.88 61.7983 15.84 61.6783 15.8C61.5583 15.78 61.4183 15.74 61.2783 15.68C61.1583 15.68 61.0183 15.7 60.8783 15.78C60.7383 15.86 60.6383 15.92 60.5783 15.98C60.4583 15.94 60.3583 15.88 60.2783 15.84C60.1983 15.8 60.1383 15.78 60.0583 15.76C59.9783 15.74 59.8983 15.72 59.8183 15.72C59.7183 15.72 59.5983 15.74 59.4583 15.78L58.7983 15.8L58.2983 15.64C58.1783 15.68 58.0983 15.72 58.0183 15.72C57.9383 15.74 57.8383 15.76 57.7583 15.76C57.6583 15.76 57.5583 15.76 57.4383 15.76C57.3183 15.76 57.1583 15.74 56.9983 15.72C56.9583 15.72 56.8983 15.72 56.8583 15.74C56.8183 15.76 56.7583 15.78 56.7183 15.78C56.6583 15.8 56.6183 15.8 56.5783 15.8C56.5383 15.8 56.4983 15.76 56.4983 15.68C56.3383 15.64 56.1983 15.6 56.0783 15.6C55.9583 15.6 55.8183 15.62 55.6983 15.66C55.4583 15.6 55.2783 15.54 55.1183 15.5C54.9583 15.46 54.7583 15.42 54.5383 15.4C54.4983 15.42 54.4583 15.4 54.4383 15.36C54.3983 15.32 54.3783 15.26 54.3383 15.18C54.2983 15.12 54.2583 15.06 54.2183 14.98C54.1783 14.92 54.1183 14.88 54.0383 14.84L54.1983 14.68ZM55.6383 24.76C55.5583 24.8 55.4983 24.82 55.4583 24.82C55.3983 24.82 55.3383 24.8 55.2983 24.76C55.2583 24.74 55.2183 24.72 55.1783 24.68C55.1383 24.66 55.0983 24.66 55.0983 24.66C54.8983 24.56 54.7583 24.52 54.6583 24.52C54.5583 24.54 54.5383 24.54 54.5983 24.5C54.4983 24.38 54.3983 24.26 54.3183 24.16C54.2383 24.08 54.1983 23.9 54.2383 23.62C54.1583 23.66 54.0983 23.6 54.0583 23.44C54.0183 23.28 53.9783 23.16 53.9583 23.08L54.0983 22.32L54.1183 21.54L54.0983 20.7C54.0583 20.54 54.0583 20.44 54.0783 20.42C54.0983 20.42 54.1983 20.38 54.3583 20.3L54.5983 20.06C54.6983 19.96 54.8183 19.9 54.9383 19.88C55.0583 19.96 55.1983 19.98 55.3183 19.96C55.4383 19.96 55.5183 20.04 55.5583 20.22C55.5983 20.34 55.6583 20.4 55.7383 20.42C55.7983 20.46 55.8783 20.56 55.9583 20.72L56.0583 21.6L56.0183 22.3C55.8983 22.56 55.9183 22.74 56.0783 22.86C56.2183 22.98 56.3983 23.02 56.6383 22.94L57.1983 22.92L57.8783 22.98L58.7183 22.96L59.5183 22.82L59.9183 22.84L60.8583 23.16L61.5983 22.76L62.1383 22.88L62.7783 23.1L63.2983 22.86L64.2383 22.8C64.3183 22.88 64.3983 22.94 64.4583 22.94C64.4983 22.94 64.5583 22.94 64.5983 22.94C64.6383 22.94 64.6983 22.92 64.7783 22.92C64.8383 22.92 64.9383 22.92 65.0583 22.96C65.0583 23 65.0983 23.06 65.1583 23.1C65.1983 23.16 65.2583 23.22 65.2983 23.3C65.3383 23.38 65.3583 23.48 65.3783 23.58C65.3783 23.7 65.3583 23.82 65.2983 23.94C65.3383 24.1 65.3383 24.2 65.3383 24.28C65.3383 24.36 65.1983 24.4 64.9583 24.36C65.0183 24.6 64.9983 24.7 64.8983 24.7C64.7983 24.7 64.6183 24.68 64.3583 24.62L63.9783 24.92H63.1583L62.6583 24.66L61.9783 24.92L60.9583 24.64H60.6583L59.6583 24.84L59.1783 24.7L58.5583 24.86L57.7783 24.82L57.3383 24.98L56.3383 24.78L55.8383 24.84L55.6383 24.76ZM53.9583 19.16C53.8383 19.12 53.7583 19.1 53.6983 19.06C53.6183 19.04 53.5583 19.02 53.5183 19C53.4783 18.98 53.4183 18.96 53.3583 18.94C53.2983 18.94 53.2183 18.92 53.1383 18.9C53.0983 18.86 53.0783 18.8 53.0783 18.72C53.0783 18.64 53.0783 18.58 53.0783 18.5C53.0783 18.44 53.0783 18.38 53.0783 18.32C53.0783 18.26 53.0583 18.2 53.0183 18.16C52.9783 18.04 52.9783 17.94 53.0183 17.86C53.0383 17.78 53.0783 17.72 53.1383 17.68C53.1783 17.64 53.2383 17.6 53.2983 17.6C53.3383 17.6 53.3783 17.6 53.4183 17.64C53.4583 17.52 53.4783 17.44 53.5183 17.38C53.5383 17.32 53.5583 17.28 53.5983 17.24C53.6383 17.22 53.6783 17.2 53.7183 17.18C53.7583 17.16 53.8383 17.12 53.9183 17.08C54.0383 17.1 54.1183 17.12 54.1783 17.14C54.2383 17.16 54.2783 17.18 54.3183 17.2C54.3383 17.24 54.3583 17.26 54.3783 17.28C54.3983 17.32 54.4383 17.34 54.4983 17.36C54.6583 17.32 54.8383 17.28 54.9983 17.24C55.1583 17.2 55.3383 17.16 55.5183 17.08L55.5983 17.1L55.7583 17.14C55.7983 17.16 55.8583 17.16 55.8983 17.16C55.9383 17.16 55.9583 17.14 55.9583 17.1L56.7183 17.4L57.5383 17.12L58.3383 17.08L58.9983 17.36L59.5783 17.3L60.2383 17.02L60.9383 17.24L61.4783 17.3L62.2783 17.26C62.4783 17.18 62.6183 17.16 62.7383 17.2C62.8383 17.24 62.9783 17.22 63.1383 17.18C63.2183 17.16 63.2983 17.14 63.3583 17.14C63.3983 17.14 63.4583 17.12 63.5183 17.12C63.5783 17.12 63.6583 17.14 63.7383 17.14C63.8183 17.14 63.9183 17.16 64.0783 17.16C64.1183 17.2 64.1983 17.22 64.3183 17.2C64.4383 17.2 64.5583 17.16 64.6983 17.12C64.8183 17.1 64.8983 17.1 64.9783 17.12C65.0583 17.16 65.1183 17.2 65.1783 17.24C65.2183 17.28 65.2783 17.34 65.3183 17.38C65.3583 17.44 65.3983 17.48 65.4383 17.5C65.4783 17.5 65.5183 17.54 65.5583 17.6C65.5983 17.68 65.6383 17.76 65.6783 17.84C65.7183 17.92 65.7383 18.02 65.7383 18.1C65.7383 18.2 65.7383 18.28 65.6983 18.32C65.7583 18.44 65.7583 18.52 65.7183 18.58C65.6583 18.66 65.5183 18.76 65.3183 18.88C65.2583 18.9 65.1783 18.9 65.0783 18.9C64.9783 18.9 64.9183 18.98 64.9183 19.12L64.1783 18.98L63.5183 19.02L62.7383 19.12C62.6583 19.06 62.5383 19.02 62.3783 19C62.1983 19 62.0183 19.04 61.8383 19.14C61.7983 19.1 61.7583 19.08 61.6783 19.08C61.5983 19.08 61.5383 19.1 61.4583 19.12C61.3783 19.14 61.2983 19.16 61.2383 19.18C61.1783 19.2 61.1583 19.2 61.1783 19.2L60.8983 19.78L60.8583 20.36L61.1383 20.96L61.0783 21.18L60.9983 21.3C60.8783 21.4 60.7983 21.5 60.7183 21.58C60.6383 21.66 60.5583 21.74 60.4783 21.8C60.3983 21.86 60.3183 21.9 60.2383 21.9C60.1583 21.9 60.0783 21.88 59.9983 21.8C59.8783 21.9 59.7983 21.96 59.7183 21.98C59.6383 22 59.5783 22 59.5183 21.98C59.4583 21.96 59.3983 21.94 59.3583 21.9C59.2983 21.88 59.2383 21.86 59.1983 21.84C59.1583 21.7 59.1183 21.56 59.0783 21.44C59.0383 21.32 59.0583 21.24 59.0983 21.2L58.8983 20.3L58.9783 19.94L59.0183 19.28L58.1983 19.16L57.6983 19.26L57.0183 19.04L56.2783 18.92C56.1183 19 55.9783 19.04 55.8583 19.04C55.7383 19.06 55.6583 19.1 55.6583 19.14C55.4383 19.12 55.2783 19.12 55.1983 19.12C55.1183 19.14 55.0183 19.14 54.9183 19.14C54.7583 19.16 54.5783 19.14 54.3783 19.1C54.1583 19.06 54.0183 19.04 53.9383 19.02L53.9583 19.16Z" fill="white"/>
</svg>
